REM DIRINDEX 1\4,1\2\5,1\2\6,1\3\7,1\3\8,1\3\9,1\3\10
REM DIRNAME cjc107,folder01,folder02,folder03,folder04,folder05,folder06,folder07,folder08,folder09
TITLE ""
FILE "DISC2Track40.mp3" MP3
  TRACK 01 AUDIO
    TITLE "0:"
    INDEX 01 00:00:00
  TRACK 02 AUDIO
    TITLE "7:cjc107_2289"
    INDEX 01 00:00:01
  TRACK 03 AUDIO
    TITLE "0:"
    INDEX 01 00:03:35
  TRACK 04 AUDIO
    TITLE "8:cjc107_2290"
    INDEX 01 00:04:42
  TRACK 05 AUDIO
    TITLE "0:"
    INDEX 01 00:05:52
  TRACK 06 AUDIO
    TITLE "9:cjc107_2291"
    INDEX 01 00:05:54
  TRACK 07 AUDIO
    TITLE "0:"
    INDEX 01 00:06:59
  TRACK 08 AUDIO
    TITLE "8:cjc107_2292"
    INDEX 01 00:07:35
  TRACK 09 AUDIO
    TITLE "0:"
    INDEX 01 00:08:44
  TRACK 10 AUDIO
    TITLE "9:cjc107_2293"
    INDEX 01 00:08:50
  TRACK 11 AUDIO
    TITLE "0:"
    INDEX 01 00:09:57
  TRACK 12 AUDIO
    TITLE "8:cjc107_2294"
    INDEX 01 00:10:33
  TRACK 13 AUDIO
    TITLE "0:"
    INDEX 01 00:11:48
  TRACK 14 AUDIO
    TITLE "9:cjc107_2295"
    INDEX 01 00:11:54
  TRACK 15 AUDIO
    TITLE "0:"
    INDEX 01 00:12:63
  TRACK 16 AUDIO
    TITLE "8:cjc107_2296"
    INDEX 01 00:13:41
  TRACK 17 AUDIO
    TITLE "0:"
    INDEX 01 00:14:45
  TRACK 18 AUDIO
    TITLE "9:cjc107_2297"
    INDEX 01 00:14:51
  TRACK 19 AUDIO
    TITLE "0:"
    INDEX 01 00:16:00
  TRACK 20 AUDIO
    TITLE "8:cjc107_2298"
    INDEX 01 00:16:46
  TRACK 21 AUDIO
    TITLE "0:"
    INDEX 01 00:17:70
  TRACK 22 AUDIO
    TITLE "9:cjc107_2299"
    INDEX 01 00:17:72
  TRACK 23 AUDIO
    TITLE "0:"
    INDEX 01 00:19:42
  TRACK 24 AUDIO
    TITLE "8:cjc107_2300"
    INDEX 01 00:20:18
  TRACK 25 AUDIO
    TITLE "0:"
    INDEX 01 00:21:58
  TRACK 26 AUDIO
    TITLE "9:cjc107_2301"
    INDEX 01 00:21:66
  TRACK 27 AUDIO
    TITLE "0:"
    INDEX 01 00:23:32
  TRACK 28 AUDIO
    TITLE "8:cjc107_2302"
    INDEX 01 00:24:08
  TRACK 29 AUDIO
    TITLE "0:"
    INDEX 01 00:25:17
  TRACK 30 AUDIO
    TITLE "9:cjc107_2303"
    INDEX 01 00:25:23
  TRACK 31 AUDIO
    TITLE "0:"
    INDEX 01 00:26:36
  TRACK 32 AUDIO
    TITLE "8:cjc107_2304"
    INDEX 01 00:27:06
  TRACK 33 AUDIO
    TITLE "0:"
    INDEX 01 00:28:29
  TRACK 34 AUDIO
    TITLE "9:cjc107_2305"
    INDEX 01 00:28:31
  TRACK 35 AUDIO
    TITLE "0:"
    INDEX 01 00:29:21
  TRACK 36 AUDIO
    TITLE "8:cjc107_2306"
    INDEX 01 00:29:70
  TRACK 37 AUDIO
    TITLE "0:"
    INDEX 01 00:31:06
  TRACK 38 AUDIO
    TITLE "9:cjc107_2307"
    INDEX 01 00:31:16
  TRACK 39 AUDIO
    TITLE "0:"
    INDEX 01 00:32:25
  TRACK 40 AUDIO
    TITLE "8:cjc107_2308"
    INDEX 01 00:33:01
  TRACK 41 AUDIO
    TITLE "0:"
    INDEX 01 00:34:22
  TRACK 42 AUDIO
    TITLE "9:cjc107_2309"
    INDEX 01 00:34:30
  TRACK 43 AUDIO
    TITLE "0:"
    INDEX 01 00:35:59
  TRACK 44 AUDIO
    TITLE "8:cjc107_2310"
    INDEX 01 00:36:35
  TRACK 45 AUDIO
    TITLE "0:"
    INDEX 01 00:37:57
  TRACK 46 AUDIO
    TITLE "9:cjc107_2311"
    INDEX 01 00:37:63
  TRACK 47 AUDIO
    TITLE "0:"
    INDEX 01 00:40:28
  TRACK 48 AUDIO
    TITLE "8:cjc107_2312"
    INDEX 01 00:40:72
  TRACK 49 AUDIO
    TITLE "0:"
    INDEX 01 00:42:37
  TRACK 50 AUDIO
    TITLE "9:cjc107_2313"
    INDEX 01 00:42:43
  TRACK 51 AUDIO
    TITLE "0:"
    INDEX 01 00:45:20
  TRACK 52 AUDIO
    TITLE "8:cjc107_2314"
    INDEX 01 00:45:69
  TRACK 53 AUDIO
    TITLE "0:"
    INDEX 01 00:47:23
  TRACK 54 AUDIO
    TITLE "9:cjc107_2315"
    INDEX 01 00:47:27
  TRACK 55 AUDIO
    TITLE "0:"
    INDEX 01 00:49:55
  TRACK 56 AUDIO
    TITLE "8:cjc107_2316"
    INDEX 01 00:50:29
  TRACK 57 AUDIO
    TITLE "0:"
    INDEX 01 00:51:56
  TRACK 58 AUDIO
    TITLE "9:cjc107_2317"
    INDEX 01 00:51:63
  TRACK 59 AUDIO
    TITLE "0:"
    INDEX 01 00:53:11
  TRACK 60 AUDIO
    TITLE "10:cjc107_2318"
    INDEX 01 00:54:54
  TRACK 61 AUDIO
    TITLE "10:cjc107_2319"
    INDEX 01 01:00:29
  TRACK 62 AUDIO
    TITLE "10:cjc107_2320"
    INDEX 01 01:10:67
  TRACK 63 AUDIO
    TITLE "10:cjc107_2321"
    INDEX 01 01:14:51
  TRACK 64 AUDIO
    TITLE "10:cjc107_2322"
    INDEX 01 01:21:59
  TRACK 65 AUDIO
    TITLE "10:cjc107_2323"
    INDEX 01 01:25:41
  TRACK 66 AUDIO
    TITLE "0:"
    INDEX 01 01:31:61
